<svg width="52" height="52" viewBox="0 0 52 52" fill="none" xmlns="http://www.w3.org/2000/svg">
<path d="M43.332 14.0807H36.832V9.7474C36.832 7.3424 34.9037 5.41406 32.4987 5.41406H19.4987C17.0937 5.41406 15.1654 7.3424 15.1654 9.7474V14.0807H8.66536C6.26036 14.0807 4.33203 16.0091 4.33203 18.4141V42.2474C4.33203 44.6524 6.26036 46.5807 8.66536 46.5807H43.332C45.737 46.5807 47.6654 44.6524 47.6654 42.2474V18.4141C47.6654 16.0091 45.737 14.0807 43.332 14.0807ZM19.4987 9.7474H32.4987V14.0807H19.4987V9.7474ZM43.332 42.2474H8.66536V37.9141H43.332V42.2474ZM43.332 31.4141H8.66536V18.4141H15.1654V22.7474H19.4987V18.4141H32.4987V22.7474H36.832V18.4141H43.332V31.4141Z" fill="#8957FF"/>
</svg>
