<svg width="52" height="52" viewBox="0 0 52 52" fill="none" xmlns="http://www.w3.org/2000/svg">
<path d="M25.9987 15.1667V6.5H4.33203V45.5H47.6654V15.1667H25.9987ZM12.9987 41.1667H8.66536V36.8333H12.9987V41.1667ZM12.9987 32.5H8.66536V28.1667H12.9987V32.5ZM12.9987 23.8333H8.66536V19.5H12.9987V23.8333ZM12.9987 15.1667H8.66536V10.8333H12.9987V15.1667ZM21.6654 41.1667H17.332V36.8333H21.6654V41.1667ZM21.6654 32.5H17.332V28.1667H21.6654V32.5ZM21.6654 23.8333H17.332V19.5H21.6654V23.8333ZM21.6654 15.1667H17.332V10.8333H21.6654V15.1667ZM43.332 41.1667H25.9987V36.8333H30.332V32.5H25.9987V28.1667H30.332V23.8333H25.9987V19.5H43.332V41.1667ZM38.9987 23.8333H34.6654V28.1667H38.9987V23.8333ZM38.9987 32.5H34.6654V36.8333H38.9987V32.5Z" fill="#8957FF"/>
</svg>
